<svg version="1.1" xmlns="http://www.w3.org/2000/svg" x="0" y="0" viewBox="0 0 60 60" style="enable-background:new 0 0 60 60" xml:space="preserve"><style>.st0{fill:#000}</style><g id="Group_84" transform="translate(13.739)"><g><g id="Group_82"><path class="st0" d="m2.6 17.3 11.7-1.7c.2 0 .4 0 .5-.2.1 0 .3-.2.4-.2h.1c.1 0 .3-.2.4-.3s.3-.2.4-.3l.1-.2c.6.6 1.3 1 2 1.1L30 17.3h.3c.7 0 1.4-.4 1.8-.9.5-.6.8-1.4.8-2.2 0-1.2-.5-2.2-1.5-2.8L20.5 5.6c-1.4-.7-3-.4-4.1.6l-.1-.2c-.4-.3-.9-.6-1.4-.8-.1 0-.3-.2-.5-.2h-1.5c-.1 0-.4.2-.5.2L1.4 11c-.6.3-1.1.9-1.3 1.6-.1.4-.2.8-.2 1.3-.2 2.2 1.2 3.6 2.7 3.4z"/><path class="st0" d="M26.3 18.8c-.5 1.5-1.9 2.4-3.4 2.5H9.7c-1.6-.1-3-1.1-3.5-2.7-.2-.4-.6-.6-1-.4-.1 0-.1.1-.2.1-.4.4-.5 1.1-.2 1.6 1.1 2.4 3 3.8 5 3.8h13.1c2.2-.1 4.1-1.5 4.8-3.5.2-.5.1-1.1-.2-1.6-.2-.3-.6-.4-.9-.2-.2.1-.3.2-.3.4z"/></g></g></g><path id="Path_220" class="st0" d="M56.3 14.2c-1.8 0-3.4 1.3-3.8 3.1v.3c0 6.1-4.9 11-11 11.1-1.3-.1-2.7-.3-3.9-.7l-.6-.1c-2.3-.9-4.8-1.3-7.2-1.3-1.2 0-2.4.1-3.6.3-.5.2-1.1.2-1.6.3h-.2c-.6.1-1.2.4-1.8.7-.9.4-1.9.6-3 .7h-1c-.7 0-1.4 0-2.1-.2-2.1-.5-4-1.5-5.6-3-1.8-1.8-3-4.2-3.3-6.8v-1.2c0-.2 0-.4-.2-.5-.2-.3-.3-.8-.5-1.2-.7-1-1.9-1.7-3.1-1.7-.8 0-1.5.2-2.1.7-1 .7-1.7 1.9-1.6 3.1v19c0 .8 0 1.6.2 2.3.8 5.4 4.7 9.7 9.8 10.9l17.2 4.5c.4.1.9.2 1.3.2.5 0 .8.2 1.3.2h.2c.9 0 1.9-.1 2.8-.3L50.1 50c6-1.5 10.1-6.9 10-13.1V18c0-2.1-1.6-3.8-3.6-3.8h-.2zM14.2 39c.2-.6.8-1 1.4-.8l4.9 1.3c.6.2 1 .8.8 1.5-.2.5-.6.8-1.1.8H20l-5-1.3c-.6-.2-1-.9-.8-1.5zm9.2 7.7c-.2.5-.6.8-1.1.8H22l-11.8-3.1c-.6-.2-1-.8-.8-1.5.2-.6.8-1 1.4-.8l11.8 3.1c.6.3.9.9.8 1.5z"/></svg>