<svg version="1.1" xmlns="http://www.w3.org/2000/svg" x="0" y="0" viewBox="0 0 60 60" style="enable-background:new 0 0 60 60" xml:space="preserve"><style>.st0{fill:#000}</style><g transform="translate(-149 -2050.798)"><g transform="translate(149 2050.798)"><g id="Group_62"><g id="Group_59" transform="translate(29.067)"><g ><path class="st0" d="M.8 19c-.1 0-.3-.1-.4-.3-.5-.4-.5-1.1-.1-1.5 1.6-1.8 1.9-4.4 1-6.5-.3-.7-.1-1.4.5-1.6.6-.2 1.2 0 1.5.5 1.5 3 1 6.6-1.3 9.1-.3.3-.8.4-1.2.3z"/></g></g><g id="Group_60" transform="translate(0 10.556)"><path class="st0" d="M26.9 9 .6 35.3c-.8.7-.8 1.9-.2 2.6.1.1.2.1.2.2l.8 1c1 1 2.5 1.1 3.6.3 6.6-4.9 12.5-10.8 17.3-17.5.5-.6.6-1.5.4-2.2-.2-1.2.1-2.4 1-3.2l4.3-4.7L26.9 9zm-5.7 11.5c-5 6.5-10.9 12.4-17.4 17.6-.1 0-.1.1-.3.1-.2 0-.3 0-.4-.1-.1-.2-.1-.4.2-.7 6.4-5.1 12.2-11 17.3-17.4.2-.2.5-.2.7-.1.1.1.1.4-.1.6z"/></g><g transform="translate(24.615 6.964)"><path class="st0" d="m34.4 36.9-.6-.7c-8.7-10.1-18.6-19-29.5-26.5l-.7-.4c-.9-.6-2.2-.4-2.9.3-.9.9-.9 2.3 0 3.2l.1.1C11 21.4 20 31.2 27.5 42.1v.1c1.3 1.9 3.9 2.4 5.8 1.1.3-.2.5-.4.7-.6 1.7-1.5 1.8-4.1.4-5.8zM4.1 13.5c-.5 0-1-.4-1-1s.4-1 1-1c.5 0 1 .4 1 1-.1.6-.4 1-1 1zM31 40.4c-.6 0-1.1-.5-1.1-1.1s.5-1.1 1.1-1.1 1.1.5 1.1 1.1c.1.6-.4 1.1-1.1 1.1z"/></g></g></g></g></svg>