<svg xmlns="http://www.w3.org/2000/svg" viewBox="0 0 60 60" style="enable-background:new 0 0 60 60" xml:space="preserve"><style>.st0{fill:#000}</style><path class="st0" d="M59.5 21.3c-.1-.4-.4-.7-.8-.7h-.1c-.4 0-.8.4-.8.8 0 2.6-1.6 5-4 6.1-.8.4-1.7.6-2.6.6-2.7-.1-5.1-1.6-6.2-4-1.5-3.1-4.6-5.1-8-5.3-1.1 0-2.2.3-3.2.7-1.5.7-2.7 1.7-3.6 3-.8-1.4-2.1-2.5-3.6-3-1-.4-2.1-.7-3.2-.7-3.5.1-6.6 2.1-8 5.3-1.2 2.4-3.6 3.9-6.2 4-.9 0-1.8-.2-2.6-.6-2.4-1-4-3.4-4-6.1 0-.4-.3-.8-.8-.8h-.5c-.4 0-.8.3-.8.7-1.9 7.6 2 15.5 9.1 18.6 1.9.8 3.9 1.3 6 1.2 6 .1 11.6-3.2 14.5-8.4 2.9 5.3 8.5 8.5 14.5 8.4 2.1 0 4.1-.4 6-1.2 7.1-3.2 10.8-11 8.9-18.6zM3.7 29c.2-.1.5-.1.7 0 1.7 1.6 3.9 2.5 6.2 2.4 7.2 0 8.2-6.4 8.2-9.1 0-.2.1-.4.3-.4h.1c.2 0 .4.2.4.4 0 2.4-.8 10-9.1 10-2.5.1-5-.8-6.8-2.5-.2-.4-.2-.6 0-.8zm15.8 7.2c-1.6.9-3.5 1.4-5.4 1.4C12 37.5 9.9 37 8 36c-2.1-1-3.9-2.4-5.3-4.3-.1-.1-.1-.4.1-.7.1-.1.4-.1.7.1 1.3 1.7 3 3.1 5 4 3.3 1.8 7.3 1.8 10.7.1 3.7-2.2 6.2-6.9 6.8-12.9 0-.3.3-.4.6-.4s.4.3.4.6c-.7 6.6-3.4 11.5-7.5 13.7zm20.7-14.4c.2 0 .4.1.4.3v.1c0 2.8 1 9.1 8.2 9.1 2.3.1 4.6-.8 6.2-2.4.2-.2.5-.2.7 0s.2.5 0 .7c-1.8 1.7-4.3 2.6-6.8 2.5-8.3 0-9.1-7.6-9.1-10 0-.1.2-.3.4-.3zm16.7 10.1c-1.4 1.8-3.2 3.3-5.3 4.3-1.9.9-4 1.5-6.1 1.5-1.9 0-3.8-.4-5.4-1.4-4.2-2.4-6.6-7.2-7.3-13.7 0-.3.1-.4.4-.6.3 0 .4.1.6.4.6 6.1 3 10.8 6.8 12.9 3 1.8 6.9 1.7 10.7-.1 2-.9 3.7-2.3 5-4 .2-.2.5-.2.7-.1 0 .4 0 .6-.1.8z"/></svg>