<svg version="1.1" id="Layer_1" xmlns="http://www.w3.org/2000/svg" x="0" y="0" viewBox="0 0 200 159" style="enable-background:new 0 0 200 159" xml:space="preserve"><style>.st1{fill:#4F091D}</style><g id="Group_7" transform="translate(0 .008)"><g id="Group_1" transform="translate(0 5.648)"><path id="Path_1" d="M100 153.4 50 77 0 .7h200L150 77l-50 76.4z" style="fill:#fff"/></g><g id="Group_2" transform="translate(7.949 51.296)"><path id="Path_2" class="st1" d="M18.1 28.6V33c0 5.3-2.9 8.4-8.5 8.4s-8.5-3-8.5-8.3V15.8c0-5.3 2.9-8.4 8.5-8.4s8.5 3 8.5 8.4V19h-5.4v-3.5c0-2.4-1.1-3.3-2.9-3.3s-2.9.9-2.9 3.3v17.9c0 2.4 1.1 3.2 2.9 3.2s2.9-.9 2.9-3.2v-4.8h5.4z"/><path id="Path_3" class="st1" d="M34.7 41c-.5-1.3-.6-2.7-.5-4.1v-5.2c0-3.1-1.1-4.2-3.7-4.2h-2V41h-5.7V7.8h8.6c5.9 0 8.4 2.5 8.4 7.6V18c0 3.4-1.2 5.6-3.7 6.7 2.8 1.1 3.7 3.6 3.7 7v5.1c-.1 1.4.1 2.8.6 4.1h-5.7zm-6.2-28.4v10.2h2.2c2.1 0 3.4-.9 3.4-3.5V16c0-2.4-.9-3.4-2.9-3.4h-2.7z"/><path id="Path_4" class="st1" d="M50.5 21.8h7.8v4.8h-7.8v9.7h9.8V41H44.9V7.8h15.5v4.8h-9.8v9.2z"/><path id="Path_5" class="st1" d="M77.7 23.3 75.6 41h-7.8l-4-33.2h5.5l3 26.2L75 7.8h5.5l2.8 26.3 2.9-26.3h5l-4 33.2h-7.5l-2-17.7z"/><path id="Path_6" class="st1" d="M121.2 28.6V33c0 5.3-2.9 8.4-8.5 8.4s-8.5-3-8.5-8.4V15.8c0-5.3 2.9-8.4 8.5-8.4s8.5 3 8.5 8.4V19h-5.4v-3.5c0-2.4-1.1-3.3-2.9-3.3s-2.9.9-2.9 3.3v17.9c0 2.4 1.1 3.2 2.9 3.2s2.9-.9 2.9-3.2v-4.8h5.4z"/><path id="Path_7" class="st1" d="M131.3 7.8v25.6c0 2.4 1.1 3.2 2.9 3.2s2.9-.9 2.9-3.2V7.8h5.4v25.3c0 5.3-2.9 8.4-8.5 8.4s-8.5-3-8.5-8.4V7.8h5.8z"/><path id="Path_8" class="st1" d="M146.1 7.8h17.5v4.8h-5.9V41h-5.6V12.6h-5.9l-.1-4.8z"/><path id="Path_9" class="st1" d="M175 7.5c5.5 0 8.4 3 8.4 8.4V17H178v-1.4c0-2.4-1-3.3-2.8-3.3-1.8 0-2.8.9-2.8 3.3 0 6.8 11.1 8.1 11.1 17.6 0 5.3-2.9 8.4-8.5 8.4s-8.5-3-8.5-8.4v-2h5.4v2.4c0 2.4 1.1 3.2 2.9 3.2 1.8 0 2.9-.9 2.9-3.2 0-6.8-11.1-8.1-11.1-17.6.1-5.5 2.9-8.5 8.4-8.5z"/></g><g id="Group_3" transform="translate(48.27 32.471)"><path id="Path_10" class="st1" d="M13.4 7.6v.5c.1 1-.4 2.1-1.4 2.5 1.1.4 1.7 1.5 1.6 2.6v1c0 1.9-1.1 2.9-3.2 2.9H7.1V4.8h3.2c2.1 0 3.1 1 3.1 2.8zm-4.2-1v3.2h.8c.8 0 1.3-.3 1.3-1.3v-.7c0-.9-.3-1.3-1.1-1.3l-1 .1zm0 5v3.8h1.2c.7 0 1.1-.3 1.1-1.2v-1.1c0-1.2-.4-1.5-1.4-1.5h-.9z"/><path id="Path_11" class="st1" d="M22.7 17.2h-2.1l-.4-2.2h-2.6l-.4 2.2h-1.9l2.2-12.4h3.1l2.1 12.4zm-4.9-3.9h2l-1-6.2-1 6.2z"/><path id="Path_12" class="st1" d="M29 17.2c-.2-.5-.2-1-.2-1.5v-1.9c0-1.2-.4-1.6-1.4-1.6h-.7v5h-2.1V4.8h3.2c2.2 0 3.2.9 3.2 2.8v1c.1 1-.4 2.1-1.4 2.5 1.1.4 1.4 1.4 1.4 2.6v1.9c-.1.5 0 1 .3 1.5l-2.3.1zM26.7 6.6v3.8h.8c.8 0 1.3-.3 1.3-1.3V7.8c0-.9-.3-1.3-1.1-1.3l-1 .1z"/><path id="Path_13" class="st1" d="M39.6 7.6v.5c.1 1-.4 2.1-1.4 2.5 1.1.4 1.7 1.5 1.6 2.6v1c0 1.9-1.1 2.9-3.2 2.9h-3.3V4.8h3.2c2.2 0 3.1 1 3.1 2.8zm-4.2-1v3.2h.8c.8 0 1.3-.3 1.3-1.3v-.7c0-.9-.3-1.3-1.1-1.3l-1 .1zm0 5v3.8h1.2c.7 0 1.1-.3 1.1-1.2v-1.1c0-1.2-.4-1.5-1.4-1.5h-.9z"/><path id="Path_14" class="st1" d="M44.2 10h2.9v1.8h-2.9v3.6h3.6v1.8H42V4.8h5.8v1.8h-3.6V10z"/><path id="Path_15" class="st1" d="M54.5 17.2c-.2-.5-.2-1-.2-1.5v-1.9c0-1.2-.4-1.6-1.4-1.6h-.7v5h-2.1V4.8h3.2c2.2 0 3.1.9 3.1 2.8v1c.1 1-.4 2.1-1.4 2.5 1.1.4 1.4 1.4 1.4 2.6v1.9c-.1.5 0 1 .3 1.5l-2.2.1zM52.2 6.6v3.8h.8c.8 0 1.3-.3 1.3-1.3V7.8c0-.9-.3-1.3-1.1-1.3l-1 .1z"/><path id="Path_16" class="st1" d="M65.6 4.7c1.5-.2 2.9.9 3.1 2.4v1.1h-2v-.6c0-.9-.4-1.2-1.1-1.2s-1.1.4-1.1 1.2c0 2.5 4.2 3 4.2 6.5 0 1.7-1.4 3.1-3.1 3.1-1.7 0-3.1-1.4-3.1-3.1v-.8h2v.9c0 .9.4 1.2 1.1 1.2.7 0 1.1-.3 1.1-1.2 0-2.5-4.2-3-4.2-6.5-.2-1.5.9-2.9 2.4-3.1.2 0 .5 0 .7.1z"/><path id="Path_17" class="st1" d="M73 17.2h-2.1V4.8H73v5.3h2.4V4.8h2.2v12.4h-2.2v-5.3H73v5.3z"/><path id="Path_18" class="st1" d="M79.9 7.8c.1-1.8 1.5-3.1 3.3-3.1 1.7.1 3 1.4 3.1 3.1v6.4c-.1 1.8-1.5 3.1-3.3 3.1-1.7-.1-3-1.4-3.1-3.1V7.8zm2.1 6.5c0 .9.4 1.2 1.1 1.2.7 0 1.1-.4 1.1-1.2V7.6c0-.9-.4-1.2-1.1-1.2-.7 0-1.1.4-1.1 1.2v6.7z"/><path id="Path_19" class="st1" d="M94.9 7.8v1.6c0 2-1 3-3.1 3h-1v4.7h-2.1V4.8h3.1c2.1 0 3.1 1.1 3.1 3zm-4.2-1.2v4.2h1c.7 0 1-.3 1-1.2V7.7c0-.9-.4-1.2-1-1.2l-1 .1z"/></g><g id="Group_5" transform="translate(73.885 -.008)"><g id="Group_4"><path id="Path_20" class="st1" d="m11.5 23.8-.7.6 13-3.9 1-2.7-13.3 6z"/><path id="Path_21" class="st1" d="m28.6 19.5 8.3-.3.3.3c1.4 1.1 3.3 1.3 4.8.4.9-.5 1.5-1.2 1.9-2.1.3-.8.2-1.8-.3-2.5-.1-.2-.2-.4-.4-.5-1-.9-2.3-1.2-3.6-.8-.1-.1-.1-.2-.2-.2-.4-.3-.9-.3-1.3 0-.3.2-.3.6-.2.9-.7.4-1.2 1.1-1.5 1.9-.2.5-.3 1-.2 1.5l-6.7-.2-.9 1.6zm8.9-2.7c.3-.7.8-1.2 1.4-1.6 1.1-.7 2.5-.6 3.5.2.1.1.2.2.3.4.3.5.4 1.2.2 1.7-.3.7-.8 1.2-1.4 1.6-1.1.7-2.5.6-3.5-.2-.1-.1-.2-.2-.3-.4-.4-.5-.5-1.2-.2-1.7z"/><path id="Path_22" class="st1" d="M26.9 0c-.1.2.9 2.6-.1 3.5-.4.3-.7.6-1 1-1 1.3-1 3.2.2 4.5l.1.1-.6 8.6L20 32.9l.9-1 7.9-14-1.3-1.3.5-6.8c.5 0 1 0 1.4-.1 1-.3 1.8-.9 2.4-1.7 1-1.3 1-3.2-.2-4.5-.2-.2-.4-.3-.6-.4-.5-.3-1-.4-1.5-.5C28.2 2.1 28.1.4 28 .1c-.2-.2-1-.3-1.1-.1zm.5 17.9c.2.2.2.5 0 .7-.2.2-.6.2-.8 0-.2-.2-.2-.5 0-.7.2-.2.5-.2.8 0zm1.1-14.1c.6-.2 1.3-.1 1.9.2.1.1.2.2.4.3.8.9.9 2.2.1 3.2-.4.6-1.1 1-1.8 1.3-.6.2-1.3.1-1.9-.2-.1-.1-.2-.2-.4-.3-.7-.9-.8-2.3 0-3.2.4-.7 1-1.1 1.7-1.3z"/></g></g><g id="Group_6" transform="translate(16.826 15.32)"><path id="Path_23" class="st1" d="M142.2 34.2h2.9l20.2-32.1h-59.4v2.4h55l-18.7 29.7z"/><path id="Path_24" class="st1" d="m104.5 87.6-20.6 32.8-20.7-32.8h-3l23.6 37.6 23.6-37.6h-2.9z"/><path id="Path_25" class="st1" d="M25.6 34.2 6.9 4.5h49.4V2.1H2.5l20.2 32.1h2.9z"/></g></g></svg>