<svg version="1.1" id="Layer_1" xmlns="http://www.w3.org/2000/svg" x="0" y="0" viewBox="0 0 60 60" style="enable-background:new 0 0 60 60" xml:space="preserve"><style>.st0{fill:#000}</style><g transform="translate(-163 -1008.602)"><g transform="translate(163 1008.602)"><g><path class="st0" d="M20.1 32.7c-.3-.3-.8-.3-1.1 0l-9.6 9.6c-1-.5-2.1-.8-3.2-.8-1.6 0-3.2.7-4.4 1.8C.6 44.5 0 46.1 0 47.7c0 1.6.7 3.2 1.8 4.4 1.2 1.1 2.8 1.8 4.4 1.8 1.6 0 3.2-.7 4.4-1.8 2-2.1 2.4-5.3.8-7.7l9.6-9.6c.3-.3.3-.8 0-1.1l-.9-1zM8.5 50.1c-.6.6-1.5 1-2.3 1-1.9 0-3.4-1.5-3.4-3.4 0-.9.4-1.8 1-2.4.6-.6 1.5-1 2.3-1 1.9 0 3.4 1.5 3.4 3.4.1.9-.3 1.7-1 2.4z"/><path  class="st0" d="M29.9 27c.3.3.8.2 1 0 0 0 0-.1.1-.1L47.9 5.5c.1-.3.3-.6.1-.7-.2-.4-.6-.7-1.1-.7l-.2-.1-19.4 19.4c-.3.3-.3.8 0 1.1l2.6 2.5z"/></g><path class="st0" d="M59.6 51.9c-.5-.5-1.4-.6-1.9 0-.9.9-2.2 1.5-3.5 1.4-1.3 0-2.6-.5-3.5-1.4l-1-1c1.5-2.5 1.2-5.6-.8-7.7-2.1-2-5.2-2.4-7.7-1L2.8 4l-.3.1c-.4.1-.9.4-1.1.7-.1.2 0 .5.1.7l19.4 24c1 1.3 2.6 2 4.2 2h.1c1 0 1.7.6 2.7 1.5l11 11c-1.6 2.5-1.2 5.8.8 7.9 1.2 1.2 2.8 1.8 4.5 1.8 1.2 0 2.4-.3 3.4-1l1 1c3 3 7.9 3 11 0 .3-.3.4-.6.4-1 0-.3-.1-.6-.4-.8zm-35.7-22c-.4-.4-.4-1-.1-1.4l1.4 1.4c-.3.3-.8.4-1.1.2l-.2-.2zm1.7-.2-1.4-1.4c.4-.3 1-.2 1.4.1.2.4.2.9 0 1.3zM46.8 50c-.6.6-1.5 1-2.4 1-.9 0-1.8-.4-2.4-1-.6-.6-1-1.5-1-2.4 0-.9.4-1.8 1-2.4.6-.6 1.5-1 2.4-1 .9 0 1.8.4 2.4 1 .6.7 1 1.5 1 2.4 0 .9-.3 1.8-1 2.4z"/></g></g></svg>